<svg width="50" height="52" viewBox="0 0 50 52" fill="none" xmlns="http://www.w3.org/2000/svg">
<path fill-rule="evenodd" clip-rule="evenodd" d="M21.7289 46.6887H27.5647V44.5229H21.7289V46.6887ZM18.6975 43.4725H30.595C30.7242 43.4725 30.8292 43.3674 30.8292 43.2393V41.9137C30.8292 41.7856 30.7242 41.6806 30.595 41.6806H18.6975C18.5694 41.6806 18.4644 41.7856 18.4644 41.9137V43.2393C18.4644 43.3674 18.5694 43.4725 18.6975 43.4725ZM10.5099 5.80957C10.5099 6.23706 10.8576 6.58473 11.2851 6.58473H19.3687C19.7962 6.58473 20.1439 6.23706 20.1439 5.80957V4.3275C20.1439 3.9 19.7962 3.55233 19.3687 3.55233H17.8289C17.539 3.55233 17.3037 3.31705 17.3037 3.02715C17.3037 1.93687 16.4161 1.05036 15.3269 1.05036C14.2366 1.05036 13.3501 1.93687 13.3501 3.02715C13.3501 3.31705 13.1149 3.55233 12.825 3.55233H11.2851C10.8576 3.55233 10.5099 3.9 10.5099 4.3275V5.80957ZM26.4902 23.6395C26.4723 23.6721 26.4828 23.7141 26.5154 23.733L33.4079 27.7118C33.4394 27.7307 33.4825 27.7191 33.5003 27.6866L34.9624 25.1541C33.7009 24.2361 32.8785 22.7488 32.8785 21.0724C32.8785 18.2889 35.1431 16.0254 37.9255 16.0254C38.6576 16.0254 39.3519 16.183 39.98 16.4634L41.4421 13.932C41.4526 13.9121 41.4516 13.8932 41.4484 13.8806C41.4436 13.8634 41.4323 13.8487 41.4169 13.8396L34.5244 9.85977C34.5045 9.84822 34.4856 9.85032 34.473 9.85347C34.4604 9.85662 34.4436 9.86502 34.432 9.88498L26.4902 23.6395ZM4.42939 6.6341H9.6581C9.96061 7.22756 10.5751 7.6351 11.2851 7.6351H19.3687C20.0777 7.6351 20.6932 7.22756 20.9947 6.6341H26.2244C26.9397 6.6341 27.5217 7.216 27.5217 7.93235V19.7532L25.5806 23.1143C25.2728 23.649 25.4556 24.3338 25.9902 24.6426L26.6866 25.0449L24.2739 29.2243C23.9651 29.7589 24.1489 30.4438 24.6825 30.7526L27.5217 32.3911V37.6902C27.5217 38.4055 26.9397 38.9874 26.2244 38.9874H4.42939C3.71409 38.9874 3.13114 38.4055 3.13114 37.6902V7.93235C3.13114 7.216 3.71409 6.6341 4.42939 6.6341ZM28.6151 44.5229H30.595C31.303 44.5229 31.8796 43.9473 31.8796 43.2393V41.9137C31.8796 41.2058 31.303 40.6302 30.595 40.6302H29.5341C30.2556 39.8209 30.6538 38.7744 30.6528 37.6902V30.8744L32.1853 28.2191L32.8827 28.6214C33.0581 28.7233 33.2503 28.7716 33.4394 28.7716C33.8259 28.7716 34.203 28.571 34.4099 28.2128L35.872 25.6804C36.1966 25.8253 36.538 25.9388 36.8941 26.0133C38.8425 28.3798 39.9128 31.3628 39.9128 34.4351C39.9128 39.8267 36.705 44.6247 31.7326 46.6887H28.6151V44.5229ZM47.3672 34.4351C47.3672 38.8876 45.9797 43.1185 43.3548 46.6887H34.0518C35.7933 45.6362 37.2963 44.2224 38.4633 42.5198C40.0987 40.1344 40.9632 37.3394 40.9632 34.4351C40.9632 31.4406 40.0199 28.5237 38.2889 26.1047C40.7153 25.9314 42.6721 24.0355 42.941 21.6365C45.8053 25.276 47.3672 29.7663 47.3672 34.4351ZM49.9995 48.3514V49.8041C49.9995 50.7211 49.2537 51.4679 48.3367 51.4679H17.4949C16.5779 51.4679 15.8321 50.7211 15.8321 49.8041V48.3514C15.8321 47.4345 16.5779 46.6887 17.4949 46.6887H20.6785V44.5229H18.6975C17.9896 44.5229 17.414 43.9473 17.414 43.2393V42.1186H4.42939C1.98729 42.1186 0 40.1323 0 37.6902V7.93235C0 5.4892 1.98729 3.50297 4.42939 3.50297H9.6581C9.96061 2.90951 10.5751 2.50197 11.2851 2.50197H12.3449C12.5939 1.08188 13.8365 0 15.3269 0C16.8163 0 18.0589 1.08188 18.3079 2.50197H19.3687C20.0777 2.50197 20.6932 2.90951 20.9947 3.50297H26.2244C28.6665 3.50297 30.6528 5.4892 30.6528 7.93235V14.3291L33.5224 9.3598C33.6715 9.10141 33.9121 8.91654 34.2009 8.83882C34.4908 8.76109 34.7912 8.801 35.0496 8.95016L35.7471 9.35245L36.8877 7.37566C37.1966 6.84102 37.8814 6.65826 38.416 6.96602L41.9778 9.02263C42.2362 9.17178 42.4211 9.41232 42.4977 9.70117C42.5755 9.99002 42.5366 10.2915 42.3875 10.5499L41.2457 12.5277L41.9421 12.93C42.2005 13.0791 42.3854 13.3197 42.4631 13.6085C42.5398 13.8974 42.5009 14.1988 42.3517 14.4572L40.8886 16.9907C41.8402 17.6818 42.5408 18.6975 42.8276 19.8739C46.4335 23.8758 48.4176 29.0415 48.4176 34.4351C48.4176 38.8572 47.1152 43.0712 44.6426 46.6887H48.3367C49.2537 46.6887 49.9995 47.4345 49.9995 48.3514ZM39.3162 21.0724C39.3162 21.8392 38.6923 22.462 37.9255 22.462C37.1598 22.462 36.5359 21.8392 36.5359 21.0724C36.5359 20.3056 37.1598 19.6817 37.9255 19.6817C38.6923 19.6817 39.3162 20.3056 39.3162 21.0724ZM7.75484 12.055C7.58993 11.8166 7.26327 11.7567 7.02484 11.9216C6.78641 12.0865 6.72653 12.4143 6.89144 12.6527L7.7958 13.9583C7.83577 14.0161 7.88697 14.0652 7.94635 14.1027C8.00572 14.1403 8.07205 14.1654 8.14138 14.1768C8.16973 14.182 8.19809 14.1841 8.2275 14.1841C8.33884 14.1841 8.44808 14.1484 8.53946 14.0812L11.2252 12.0981C11.3343 12.0143 11.4062 11.891 11.4254 11.7548C11.4445 11.6186 11.4095 11.4803 11.3277 11.3697C11.246 11.259 11.1241 11.1849 10.9882 11.1632C10.8524 11.1415 10.7135 11.1739 10.6013 11.2536L8.3504 12.9153L7.75484 12.055ZM6.71918 15.7481H9.32093C10.1108 15.7481 10.7683 15.1063 10.7872 14.3175C10.7903 14.1783 10.7381 14.0435 10.6421 13.9427C10.546 13.8419 10.4139 13.7833 10.2747 13.7797C9.98792 13.7734 9.74318 14.0024 9.73688 14.2923C9.73163 14.516 9.54466 14.6977 9.32093 14.6977H6.71918C6.4902 14.6977 6.30324 14.5118 6.30324 14.2818V11.6801C6.30352 11.5699 6.34746 11.4644 6.42544 11.3866C6.50341 11.3088 6.60905 11.2652 6.71918 11.2652H9.32093C9.34089 11.2652 9.3598 11.2662 9.3787 11.2683C9.51671 11.2875 9.65668 11.2511 9.76793 11.1673C9.87918 11.0834 9.95263 10.9588 9.97216 10.8209C9.99122 10.6828 9.95467 10.5429 9.87057 10.4318C9.78646 10.3207 9.66168 10.2476 9.52365 10.2284C9.45748 10.219 9.38921 10.2148 9.32093 10.2148H6.71918C5.91145 10.2148 5.25287 10.8723 5.25287 11.6801V14.2818C5.25287 15.0906 5.91145 15.7481 6.71918 15.7481ZM10.6013 21.0829L8.3504 22.7446L7.75484 21.8843C7.71567 21.8276 7.66572 21.7792 7.60783 21.7418C7.54995 21.7044 7.48526 21.6788 7.41747 21.6664C7.34968 21.654 7.28012 21.6551 7.21275 21.6696C7.14538 21.6841 7.08153 21.7118 7.02484 21.7509C6.78641 21.9169 6.72653 22.2436 6.89144 22.482L7.7958 23.7876C7.83589 23.8454 7.88711 23.8945 7.94645 23.9322C8.00579 23.9699 8.07206 23.9954 8.14138 24.0071C8.16973 24.0113 8.19809 24.0134 8.2275 24.0134C8.33884 24.0134 8.44808 23.9788 8.53946 23.9105L11.2252 21.9274C11.3343 21.8436 11.4062 21.7204 11.4254 21.5841C11.4445 21.4479 11.4095 21.3096 11.3277 21.199C11.246 21.0883 11.1241 21.0142 10.9882 20.9925C10.8524 20.9708 10.7135 21.0033 10.6013 21.0829ZM6.71918 25.5774H9.32093C10.1108 25.5774 10.7683 24.9357 10.7872 24.1468C10.7903 24.0076 10.7381 23.8728 10.6421 23.772C10.546 23.6712 10.4139 23.6126 10.2747 23.609C9.98792 23.6027 9.74318 23.8317 9.73688 24.1216C9.73163 24.3453 9.54466 24.5271 9.32093 24.5271H6.71918C6.60905 24.5271 6.50341 24.4834 6.42544 24.4056C6.34746 24.3278 6.30352 24.2223 6.30324 24.1122V21.5094C6.30352 21.3992 6.34746 21.2937 6.42544 21.2159C6.50341 21.1381 6.60905 21.0945 6.71918 21.0945H9.32093C9.34089 21.0945 9.3598 21.0955 9.37976 21.0987C9.66755 21.1375 9.93225 20.9369 9.97216 20.6491C10.011 20.3624 9.8104 20.0966 9.5226 20.0578C9.45643 20.0483 9.38816 20.0441 9.32093 20.0441H6.71918C5.91145 20.0441 5.25287 20.7016 5.25287 21.5094V24.1122C5.25287 24.9199 5.91145 25.5774 6.71918 25.5774ZM14.2251 12.2966H24.8747C25.1646 12.2966 25.3999 12.0613 25.3999 11.7714C25.3999 11.4815 25.1646 11.2463 24.8747 11.2463H14.2251C13.9352 11.2463 13.6999 11.4815 13.6999 11.7714C13.6999 12.0613 13.9352 12.2966 14.2251 12.2966ZM14.2251 31.9552H21.8812C22.1711 31.9552 22.4064 31.72 22.4064 31.4301C22.4064 31.1402 22.1711 30.9049 21.8812 30.9049H14.2251C13.9352 30.9049 13.6999 31.1402 13.6999 31.4301C13.6999 31.72 13.9352 31.9552 14.2251 31.9552ZM14.2251 34.3753H21.7688C22.0587 34.3753 22.294 34.141 22.294 33.8501C22.294 33.5602 22.0587 33.3249 21.7688 33.3249H14.2251C13.9352 33.3249 13.6999 33.5602 13.6999 33.8501C13.6999 34.141 13.9352 34.3753 14.2251 34.3753ZM14.2251 14.7167H21.7688C22.0587 14.7167 22.294 14.4814 22.294 14.1915C22.294 13.9016 22.0587 13.6663 21.7688 13.6663H14.2251C13.9352 13.6663 13.6999 13.9016 13.6999 14.1915C13.6999 14.4814 13.9352 14.7167 14.2251 14.7167ZM14.2251 24.546H21.7688C22.0587 24.546 22.294 24.3107 22.294 24.0208C22.294 23.7309 22.0587 23.4956 21.7688 23.4956H14.2251C13.9352 23.4956 13.6999 23.7309 13.6999 24.0208C13.6999 24.3107 13.9352 24.546 14.2251 24.546ZM14.2251 22.1259H23.4231C23.713 22.1259 23.9483 21.8906 23.9483 21.6007C23.9483 21.3108 23.713 21.0756 23.4231 21.0756H14.2251C13.9352 21.0756 13.6999 21.3108 13.6999 21.6007C13.6999 21.8906 13.9352 22.1259 14.2251 22.1259ZM10.6013 30.9122L8.3504 32.5739L7.75484 31.7137C7.71567 31.657 7.66572 31.6085 7.60783 31.5711C7.54995 31.5337 7.48526 31.5081 7.41747 31.4957C7.34968 31.4833 7.28012 31.4844 7.21275 31.4989C7.14538 31.5134 7.08153 31.5411 7.02484 31.5803C6.78641 31.7462 6.72653 32.0729 6.89144 32.3113L7.7958 33.6169C7.83589 33.6747 7.88711 33.7238 7.94645 33.7615C8.00579 33.7992 8.07206 33.8247 8.14138 33.8364C8.16973 33.8406 8.19809 33.8427 8.2275 33.8427C8.3397 33.843 8.44903 33.8073 8.53946 33.7409L11.2252 31.7567C11.4584 31.5855 11.5078 31.2557 11.3355 31.0225C11.1633 30.7893 10.8345 30.74 10.6013 30.9122ZM6.71918 35.4067H9.32093C10.1108 35.4067 10.7683 34.765 10.7872 33.9761C10.7903 33.8369 10.7381 33.7021 10.6421 33.6013C10.546 33.5005 10.4139 33.4419 10.2747 33.4384C9.98792 33.4321 9.74318 33.661 9.73688 33.9509C9.73163 34.1747 9.54466 34.3564 9.32093 34.3564H6.71918C6.60905 34.3564 6.50341 34.3127 6.42544 34.2349C6.34746 34.1571 6.30352 34.0516 6.30324 33.9415V31.3397C6.30324 31.1097 6.4902 30.9238 6.71918 30.9238H9.32093C9.34089 30.9238 9.3598 30.9248 9.3787 30.928C9.66545 30.9679 9.9312 30.7673 9.97216 30.4805C9.98169 30.4121 9.97764 30.3425 9.96026 30.2756C9.94288 30.2088 9.91249 30.146 9.87084 30.0909C9.82919 30.0358 9.77709 29.9894 9.71752 29.9544C9.65795 29.9195 9.59208 29.8966 9.52365 29.8871C9.45748 29.8776 9.38921 29.8734 9.32093 29.8734H6.71918C5.91145 29.8734 5.25287 30.5309 5.25287 31.3397V33.9415C5.25287 34.7492 5.91145 35.4067 6.71918 35.4067ZM14.6326 2.82338C14.6326 2.44105 14.9446 2.13014 15.3269 2.13014C15.7082 2.13014 16.0202 2.44105 16.0202 2.82338C16.0202 3.20571 15.7082 3.51767 15.3269 3.51767C14.9446 3.51767 14.6326 3.20571 14.6326 2.82338Z" fill="#030303"/>
</svg>
