<svg width="52" height="52" viewBox="0 0 52 52" xmlns="http://www.w3.org/2000/svg">
<path d="M49.1083 0H2.89176C1.29875 0 0 1.29875 0 2.89176V38.2772C0 39.8701 1.29875 41.1638 2.89176 41.1638H19.0143L17.1068 46.2167H17.0307C14.5601 46.2167 12.5155 48.0684 12.2061 50.4579H9.59337C9.24331 50.4579 8.95924 50.742 8.95924 51.0921C8.95924 51.4421 9.24331 51.7262 9.59337 51.7262H42.4067C42.7568 51.7262 43.0408 51.4421 43.0408 51.0921C43.0408 50.742 42.7568 50.4579 42.4067 50.4579H39.794C39.4845 48.0685 37.4401 46.2167 34.9694 46.2167H34.8933L32.9858 41.1638H49.1083C50.7013 41.1638 52.0001 39.8702 52.0001 38.2772V2.89176C52.0001 1.29875 50.7013 0 49.1083 0ZM33.5336 46.2166H18.4664L20.3739 41.1637H31.6262L33.5336 46.2166ZM23.6461 37.7393C23.6462 37.5712 23.713 37.4099 23.8319 37.291C23.9508 37.1721 24.1121 37.1053 24.2802 37.1052H27.7198C28.0699 37.1052 28.354 37.3893 28.354 37.7393C28.354 38.0894 28.0699 38.3735 27.7198 38.3735H24.2802C24.1121 38.3734 23.9508 38.3066 23.8319 38.1877C23.713 38.0688 23.6462 37.9075 23.6461 37.7393ZM50.7317 34.3098H1.26835V2.89176C1.26835 1.99887 1.99887 1.26835 2.89176 1.26835H49.1083C50.0012 1.26835 50.7317 1.99887 50.7317 2.89176V34.3098Z"/>
<path d="M27.6649 10.8876H43.4774C43.8277 10.8876 44.1115 10.6038 44.1115 10.2535C44.1115 9.90324 43.8277 9.61938 43.4774 9.61938H27.6649C27.3146 9.61938 27.0308 9.90324 27.0308 10.2535C27.0308 10.6038 27.3146 10.8876 27.6649 10.8876ZM27.6649 14.6307H37.8846C38.2348 14.6307 38.5187 14.3468 38.5187 13.9965C38.5187 13.6463 38.2348 13.3624 37.8846 13.3624H27.6649C27.4967 13.3624 27.3354 13.4292 27.2165 13.5481C27.0976 13.6671 27.0308 13.8283 27.0308 13.9965C27.0308 14.1647 27.0976 14.326 27.2165 14.4449C27.3354 14.5638 27.4967 14.6307 27.6649 14.6307ZM43.4774 17.1048H34.1039C33.7536 17.1048 33.4697 17.3887 33.4697 17.7389C33.4697 18.0892 33.7536 18.373 34.1039 18.373H43.4774C43.5607 18.3731 43.6431 18.3567 43.7201 18.3248C43.797 18.2929 43.8669 18.2462 43.9258 18.1873C43.9847 18.1285 44.0314 18.0585 44.0633 17.9816C44.0951 17.9047 44.1115 17.8222 44.1115 17.7389C44.1115 17.6556 44.0952 17.5732 44.0633 17.4962C44.0315 17.4193 43.9847 17.3494 43.9259 17.2905C43.867 17.2316 43.797 17.1849 43.7201 17.153C43.6431 17.1212 43.5607 17.1048 43.4774 17.1048ZM27.6649 18.373H30.8842C31.2345 18.373 31.5183 18.0892 31.5183 17.7389C31.5183 17.3887 31.2345 17.1048 30.8842 17.1048H27.6649C27.3146 17.1048 27.0308 17.3887 27.0308 17.7389C27.0308 18.0892 27.3146 18.373 27.6649 18.373ZM43.4774 20.8477H37.8846C37.5343 20.8477 37.2504 21.1316 37.2504 21.4818C37.2504 21.8321 37.5343 22.116 37.8846 22.116H43.4774C43.8277 22.116 44.1115 21.8321 44.1115 21.4818C44.1115 21.1316 43.8277 20.8477 43.4774 20.8477ZM27.6649 22.116H34.104C34.4542 22.116 34.7381 21.8321 34.7381 21.4818C34.7381 21.1316 34.4542 20.8477 34.104 20.8477H27.6649C27.3146 20.8477 27.0308 21.1316 27.0308 21.4818C27.0308 21.8321 27.3146 22.116 27.6649 22.116ZM27.6649 25.859H34.104C34.4542 25.859 34.7381 25.5751 34.7381 25.2249C34.7381 24.8746 34.4542 24.5907 34.104 24.5907H27.6649C27.3146 24.5907 27.0308 24.8746 27.0308 25.2249C27.0308 25.5751 27.3146 25.859 27.6649 25.859Z"/>
<path d="M44.5527 3.15552H7.4475C5.40304 3.15552 3.74414 4.81952 3.74414 6.86398V28.7801C3.74414 30.8245 5.40304 32.4886 7.4475 32.4886H44.5527C46.5972 32.4886 48.2561 30.8245 48.2561 28.7801V6.86398C48.2561 4.81952 46.5972 3.15552 44.5527 3.15552ZM46.9878 28.7801C46.9878 30.1245 45.8971 31.2203 44.5527 31.2203H7.4475C6.10316 31.2203 5.01239 30.1245 5.01239 28.7801V6.86398C5.01239 5.51964 6.10316 4.42377 7.4475 4.42377H44.5527C45.8971 4.42377 46.9878 5.51964 46.9878 6.86398V28.7801Z"/>
<path d="M23.3164 17.0664H23.3113C22.7751 16.1986 22.0858 15.4354 21.277 14.8138C20.4247 14.1644 19.9173 13.1143 19.9173 12.0033V8.3659H20.4805C20.8305 8.3659 21.1146 8.08184 21.1146 7.73178C21.1146 7.38172 20.8305 7.09766 20.4805 7.09766H11.9576C11.6024 7.09766 11.3234 7.38172 11.3234 7.73178C11.3234 8.08184 11.6025 8.3659 11.9576 8.3659H12.5156V12.0135C12.5156 13.1143 12.0032 14.1696 11.1408 14.8341C8.68536 16.7315 7.67578 19.6232 7.92435 22.2613C8.3201 26.3147 11.6886 29.5362 15.7624 29.7543C20.5667 30.013 24.5492 26.198 24.5492 21.4343C24.5492 19.887 24.123 18.3752 23.3164 17.0664ZM9.44637 19.4254C9.86242 18.0151 10.7146 16.762 11.9119 15.8386C13.0837 14.9356 13.7839 13.505 13.7839 12.0135V8.3659H18.6491V12.0034C18.6491 13.5101 19.3441 14.9357 20.5059 15.8184C20.9864 16.1882 21.4177 16.6178 21.7894 17.0969C17.9287 18.4919 13.4897 18.5934 9.44637 19.4254Z"/>
</svg>
