<svg width="52" height="47" viewBox="0 0 52 47" xmlns="http://www.w3.org/2000/svg">
<path d="M14.2983 45.825H37.7017V47H14.2983V45.825Z"/>
<path d="M15.6709 29.1987V29.7862C15.6709 34.216 12.1593 37.835 7.83544 37.835C3.52305 37.835 0 34.216 0 29.7862V29.1987H15.6709Z"/>
<path d="M8.07568 12.9132L7.84689 13.4655V13.4772L1.28112 29.1987H0.125808L0.0457294 29.1635L6.69157 13.254C7.01189 13.1717 7.33214 13.0895 7.65245 13.0189C7.78971 12.972 7.93842 12.9485 8.07568 12.9132Z"/>
<path d="M15.6251 29.1635L15.5451 29.1987H14.4012L7.84689 13.4772V13.4655L7.65245 13.0189C7.78971 12.972 7.93842 12.9485 8.07568 12.9132C8.30446 12.8545 8.54463 12.8075 8.77341 12.7487L15.6251 29.1635Z"/>
<path d="M52 29.1987V29.7862C52 34.216 48.4769 37.835 44.1646 37.835C39.8407 37.835 36.3291 34.216 36.3291 29.7862V29.1987H52Z"/>
<path d="M51.9543 29.1635L51.8742 29.1987H50.7189L44.1646 13.4655L43.9243 12.9132C44.0616 12.9485 44.2103 12.972 44.3475 13.0189C44.6679 13.0895 44.9881 13.1717 45.3084 13.254L51.9543 29.1635Z"/>
<path d="M44.3475 13.0189L44.1646 13.4655L37.5988 29.1987H36.4549L36.3749 29.1635L43.2266 12.7487C43.4554 12.8075 43.6955 12.8545 43.9243 12.9132C44.0616 12.9485 44.2103 12.972 44.3475 13.0189Z"/>
<path d="M50.5015 11.2095V12.032C49.0832 12.0672 47.6419 12.1495 46.2006 12.267C45.7202 12.1377 45.2283 12.0202 44.7479 11.9145C44.6564 11.8792 44.5649 11.8557 44.4734 11.8439C38.4109 10.387 32.1997 9.67023 26 9.67023C19.8003 9.67023 13.5891 10.387 7.52657 11.8439L7.25206 11.9145C6.77165 12.0202 6.2798 12.1377 5.7994 12.267C4.35812 12.1495 2.91684 12.0672 1.49846 12.032V11.2095C2.99692 10.1755 4.54111 9.18851 6.07391 8.24845C19.1139 4.82923 32.8861 4.82923 45.9261 8.24845C47.4589 9.18851 49.0031 10.1755 50.5015 11.2095Z"/>
<path d="M32.44 4.78226C32.0053 4.73521 31.5592 4.7 31.113 4.67648L29.4087 1.175H22.5913L20.887 4.67648C20.4408 4.7 19.9947 4.73521 19.56 4.78226L21.8821 0H30.1179L32.44 4.78226Z"/>
<path d="M23.2318 11.4797H28.7681V44.65H23.2318V11.4797Z"/>
</svg>
